Coordinates
version=1
nRows=11
nColumns=40
inDegrees=yes

Units are S.I. units (second, meters, Newtons, ...)
If the header above contains a line with 'inDegrees', this indicates whether rotational values are in degrees (yes) or radians (no).

endheader
time	pelvis_tilt	pelvis_list	pelvis_rotation	pelvis_tx	pelvis_ty	pelvis_tz	hip_flexion_r	hip_adduction_r	hip_rotation_r	knee_angle_r	knee_angle_r_beta	ankle_angle_r	subtalar_angle_r	mtp_angle_r	hip_flexion_l	hip_adduction_l	hip_rotation_l	knee_angle_l	knee_angle_l_beta	ankle_angle_l	subtalar_angle_l	mtp_angle_l	lumbar_extension	lumbar_bending	lumbar_rotation	arm_flex_r	arm_add_r	arm_rot_r	elbow_flex_r	pro_sup_r	wrist_flex_r	wrist_dev_r	arm_flex_l	arm_add_l	arm_rot_l	elbow_flex_l	pro_sup_l	wrist_flex_l	wrist_dev_l
      0.34800000	     22.70650536	      1.25805726	      4.09573856	      0.48730996	      0.97800636	     -0.29894843	    -15.49268188	      3.31928243	     -9.60707118	     17.65009491	      0.30805227	     -3.80975847	      0.00000000	      0.00000000	    -15.06033174	     -3.41360785	      5.20325036	     55.29937305	      0.96515613	    -20.64596292	      0.00000000	      0.00000000	    -35.52331678	      2.97681678	     -2.18368778	     -1.00202596	    -15.17038763	      6.79883203	     46.44703929	     74.06547790	      0.00000000	      0.00000000	      4.09538684	    -25.63070994	     26.86396741	     46.19449969	     83.24980539	      0.00000000	      0.00000000
      0.35200000	     22.68921321	      1.32928448	      3.95093731	      0.49269727	      0.97861505	     -0.29837500	    -16.06109709	      3.28667560	     -9.72926169	     17.20628646	      0.30030635	     -3.76421534	      0.00000000	      0.00000000	    -14.45913807	     -3.29994878	      5.10265040	     55.28598913	      0.96492254	    -20.06484186	      0.00000000	      0.00000000	    -35.46885671	      2.77445464	     -1.99068842	     -0.91418719	    -15.16278881	      6.92950397	     46.53938348	     74.12754812	      0.00000000	      0.00000000	      3.96347914	    -25.66148523	     26.81455039	     46.19408245	     83.29089433	      0.00000000	      0.00000000
      0.35600000	     22.75283194	      1.33240893	      3.90239431	      0.49778985	      0.97934994	     -0.29754805	    -16.74977781	      3.41760854	     -9.64329026	     16.62461864	      0.29015433	     -3.85831051	      0.00000000	      0.00000000	    -13.96654383	     -3.24451897	      5.22626275	     55.27672676	      0.96476088	    -18.95276774	      0.00000000	      0.00000000	    -35.53477308	      2.66665494	     -1.88429144	     -0.72592216	    -15.13364697	      7.15831085	     46.62737802	     74.24140739	      0.00000000	      0.00000000	      3.77679508	    -25.81532837	     26.79895707	     46.34509508	     83.29221615	      0.00000000	      0.00000000
      0.36000000	     22.78180374	      1.32856060	      3.79149488	      0.50246549	      0.98006805	     -0.29696398	    -17.16570613	      3.44055145	     -9.83898019	     16.48878702	      0.28778362	     -3.82022959	      0.00000000	      0.00000000	    -13.36850594	     -3.19890887	      5.17592040	     55.12962274	      0.96219343	    -18.72305774	      0.00000000	      0.00000000	    -35.62543084	      2.55743554	     -1.66150275	     -0.52490846	    -15.12648713	      7.19542504	     46.73228633	     74.26051170	      0.00000000	      0.00000000	      3.74336384	    -25.86308637	     26.73674907	     46.32275334	     83.29658176	      0.00000000	      0.00000000
      0.36400000	     23.13037404	      1.27156406	      3.88884784	      0.50894473	      0.98113797	     -0.29648219	    -18.62716028	      3.77387287	     -9.78880493	     15.07054556	      0.26303064	     -4.43524239	      0.00000000	      0.00000000	    -13.36375853	     -3.32451902	      5.23752738	     54.88718803	      0.95796215	    -17.46628186	      0.00000000	      0.00000000	    -35.83197997	      2.61895607	     -1.76991686	     -0.49332482	    -15.12017376	      7.52316199	     46.84565054	     74.62932955	      0.00000000	      0.00000000	      3.16915890	    -25.87332661	     26.05758663	     46.40459525	     84.16654566	      0.00000000	      0.00000000
      0.36800000	     23.11861567	      1.34790019	      3.77491131	      0.51404543	      0.98168915	     -0.29610779	    -19.14406595	      3.72412816	     -9.88065225	     14.70400352	      0.25663327	     -4.42378244	      0.00000000	      0.00000000	    -12.81482457	     -3.14939498	      5.21949155	     54.70862547	      0.95484564	    -16.57615885	      0.00000000	      0.00000000	    -35.81525211	      2.44266165	     -1.61630652	     -0.31446763	    -15.15428651	      7.73845939	     46.86639265	     74.67237354	      0.00000000	      0.00000000	      3.07961986	    -25.86844645	     26.02742297	     46.28619645	     84.23370587	      0.00000000	      0.00000000
      0.37200000	     23.12018042	      1.33106730	      3.67092263	      0.51878886	      0.98221973	     -0.29549361	    -19.52320824	      3.75329828	     -9.99224230	     14.63380098	      0.25540801	     -4.40112293	      0.00000000	      0.00000000	    -12.22643314	     -3.06953637	      5.29346111	     54.51991644	      0.95155205	    -16.46076909	      0.00000000	      0.00000000	    -35.86926592	      2.35019649	     -1.39739219	     -0.11785634	    -15.13678166	      7.77987312	     46.95786939	     74.67639207	      0.00000000	      0.00000000	      3.05186212	    -25.89969670	     26.01447609	     46.29389307	     84.22638128	      0.00000000	      0.00000000
      0.37600000	     22.98396734	      1.42351865	      3.63682757	      0.52393936	      0.98252013	     -0.29519827	    -19.99678955	      3.73061207	    -10.03448650	     14.05291752	      0.24526968	     -4.49522288	      0.00000000	      0.00000000	    -11.50552277	     -2.84981193	      5.39835672	     54.32083185	      0.94807737	    -15.71297711	      0.00000000	      0.00000000	    -35.70597200	      2.19915286	     -1.32763316	     -0.02871352	    -15.20970554	      8.03615415	     47.10247796	     74.73212817	      0.00000000	      0.00000000	      3.02416068	    -25.81206881	     25.93431313	     45.99807240	     84.19789996	      0.00000000	      0.00000000
      0.38000000	     22.98643220	      1.39634475	      3.54950402	      0.52851994	      0.98298075	     -0.29465861	    -20.36436907	      3.77939278	    -10.17826142	     13.94167877	      0.24332820	     -4.47399055	      0.00000000	      0.00000000	    -10.88419529	     -2.79018798	      5.41237808	     54.07642036	      0.94381158	    -15.46547629	      0.00000000	      0.00000000	    -35.78390284	      2.12321682	     -1.10965172	      0.19643232	    -15.20818429	      8.07025375	     47.18620567	     74.73845819	      0.00000000	      0.00000000	      3.02271029	    -25.85061445	     25.89453075	     46.00169857	     84.18923282	      0.00000000	      0.00000000
      0.38400000	     23.16901036	      1.36422255	      3.69719444	      0.53450711	      0.98357997	     -0.29394495	    -21.52927874	      4.09308772	    -10.06303104	     12.70179304	      0.22168811	     -5.05935759	      0.00000000	      0.00000000	    -10.59529820	     -2.94736678	      5.40394800	     53.78621315	      0.93874651	    -13.50756862	      0.00000000	      0.00000000	    -35.84669388	      2.13895274	     -1.26983652	      0.44059676	    -15.14853008	      8.60167615	     46.99995861	     74.77409060	      0.00000000	      0.00000000	      2.44955800	    -26.04977233	     25.47805851	     46.41377413	     84.11566431	      0.00000000	      0.00000000
      0.38800000	     23.14270282	      1.35063589	      3.61427002	      0.53895218	      0.98391870	     -0.29350278	    -21.86358131	      4.12568331	    -10.22638220	     12.58791727	      0.21970060	     -4.98739664	      0.00000000	      0.00000000	     -9.93724176	     -2.86807636	      5.39362336	     53.48732646	      0.93352995	    -13.28030038	      0.00000000	      0.00000000	    -35.90558285	      2.06391079	     -1.05788442	      0.65447343	    -15.17946630	      8.64407890	     47.13081131	     74.77864316	      0.00000000	      0.00000000	      2.46567048	    -26.06830281	     25.45576165	     46.41754788	     84.10778399	      0.00000000	      0.00000000
